<svg width="25" height="25" viewBox="0 0 25 25" fill="none" xmlns="http://www.w3.org/2000/svg">
<path fill-rule="evenodd" clip-rule="evenodd" d="M20.3172 17.5969C20.3172 15.3956 18.5327 13.6111 16.3314 13.6111H14.0362C13.1023 13.6111 12.3452 12.8541 12.3452 11.9202C12.3452 10.9863 13.1023 10.2292 14.0362 10.2292H18.0224C21.1576 10.2292 23.6992 12.7708 23.6992 15.906V19.8918C23.6992 20.8257 22.9421 21.5827 22.0082 21.5827C21.0743 21.5827 20.3172 20.8257 20.3172 19.8918V17.5969Z" fill="#FEAB00"/>
<path fill-rule="evenodd" clip-rule="evenodd" d="M14.1624 16.1028C14.2282 16.0801 14.2934 16.0558 14.3577 16.0299C15.4953 15.572 16.8931 15.3003 17.8695 16.0421C18.8459 16.7839 19.0488 18.2067 18.0815 18.9603C17.3411 19.5372 16.5069 19.9915 15.6101 20.3008C14.0088 20.853 12.2798 20.918 10.6416 20.4876C9.00331 20.0571 7.52955 19.1506 6.40666 17.8826C5.28357 16.6144 4.56195 15.042 4.33267 13.3636C4.10351 11.6854 4.37713 9.9769 5.11891 8.45415C5.86068 6.93141 7.03741 5.66287 8.5002 4.80888C9.96297 3.9549 11.646 3.55378 13.3368 3.65643C14.2837 3.71383 15.2092 3.92784 16.0772 4.28507C17.2112 4.75174 17.3973 6.17687 16.6555 7.15332C15.9138 8.12976 14.4944 8.24277 13.2757 8.1068C13.2067 8.09911 13.1374 8.09314 13.0679 8.08893C12.2538 8.03946 11.4433 8.23253 10.739 8.64366C10.0348 9.05497 9.46815 9.66567 9.11111 10.3989C8.75389 11.1321 8.62214 11.9547 8.73244 12.7626C8.84294 13.5708 9.19031 14.3279 9.73098 14.9384C10.2717 15.5489 10.9814 15.9856 11.7701 16.1928C12.5589 16.4 13.3914 16.3687 14.1624 16.1028Z" fill="#9142F5"/>
</svg>
